<svg width="40" height="40" viewBox="0 0 40 40" fill="none" xmlns="http://www.w3.org/2000/svg">
<path d="M37.2002 20C38.7465 20 40.0201 21.2596 39.8044 22.7908C39.2946 26.4083 37.8004 29.8363 35.4602 32.6878C32.5248 36.2646 28.44 38.713 23.9018 39.6157C19.3636 40.5184 14.6528 39.8196 10.5721 37.6384C6.49133 35.4572 3.29313 31.9285 1.52241 27.6537C-0.248302 23.3788 -0.481979 18.6222 0.861198 14.1943C2.20437 9.76646 5.0413 5.94131 8.8886 3.37063C12.7359 0.799956 17.3555 -0.357198 21.9603 0.0963364C25.6314 0.457904 29.112 1.82533 32.0304 4.02283C33.2657 4.95296 33.2558 6.74425 32.1624 7.83765C31.069 8.93104 29.3075 8.90343 28.0234 8.0419C26.0609 6.72521 23.7918 5.90343 21.4115 5.66899C18.0959 5.34244 14.7697 6.17561 11.9996 8.02654C9.22946 9.87748 7.18682 12.6317 6.2197 15.8198C5.25259 19.0079 5.42084 22.4328 6.69579 25.5108C7.97074 28.5888 10.2735 31.1295 13.2117 32.7C16.1499 34.2705 19.5418 34.7736 22.8094 34.1236C26.077 33.4737 29.0181 31.7108 31.1316 29.1355C32.649 27.2865 33.6724 25.101 34.1291 22.7823C34.4278 21.2651 35.6539 20 37.2002 20Z" fill="#F3F3F3"/>
<path d="M39.9999 23.6C39.9999 24.2627 39.4626 24.7999 38.7999 24.8H17.9128C16.6129 24.7998 16.2412 23.0212 17.4323 22.5004L23.8898 19.6766L17.1401 16.2715C16.0117 15.7022 16.4169 14 17.6808 14H38.7999C39.4626 14.0001 39.9999 14.5373 39.9999 15.2V23.6Z" fill="#F3F3F3"/>
<path d="M33.6 36.8V20C33.6 18.2327 35.0327 16.8 36.8 16.8C38.5673 16.8 40 18.2327 40 20V36.8C40 38.5673 38.5673 40 36.8 40C35.0327 40 33.6 38.5673 33.6 36.8Z" fill="#F3F3F3"/>
</svg>
