<svg width="242" height="242" viewBox="0 0 242 242" fill="none" xmlns="http://www.w3.org/2000/svg">
<path d="M225.061 121C234.416 121 242.122 128.621 240.816 137.884C237.732 159.77 228.692 180.51 214.534 197.761C196.775 219.401 172.062 234.214 144.606 239.675C117.15 245.136 88.6495 240.909 63.961 227.712C39.2725 214.516 19.9234 193.168 9.21061 167.305C-1.50223 141.442 -2.91598 112.664 5.21025 85.8756C13.3365 59.0871 30.4999 35.9449 53.776 20.3923C77.0522 4.83974 105.001 -2.16105 132.86 0.582835C155.07 2.77032 176.128 11.0433 193.784 24.3381C201.257 29.9654 201.197 40.8027 194.582 47.4178C187.967 54.0328 177.31 53.8657 169.542 48.6535C157.669 40.6876 143.941 35.7158 129.539 34.2974C109.48 32.3217 89.3567 37.3624 72.5975 48.5606C55.8382 59.7588 43.4802 76.4215 37.6292 95.7098C31.7782 114.998 32.7961 135.718 40.5095 154.34C48.223 172.962 62.1547 188.333 79.9309 197.835C97.707 207.336 118.228 210.38 137.997 206.448C157.766 202.516 175.559 191.851 188.346 176.27C197.527 165.084 203.718 151.861 206.481 137.833C208.288 128.654 215.706 121 225.061 121Z" fill="black"/>
<path d="M241.999 142.78C241.999 146.789 238.749 150.04 234.739 150.04H108.372C100.508 150.039 98.2593 139.278 105.466 136.127L144.533 119.043L103.698 98.4425C96.871 94.9981 99.322 84.7001 106.969 84.7001H234.739C238.749 84.7004 241.999 87.9507 241.999 91.9601V142.78Z" fill="black"/>
<path d="M203.28 222.64V121C203.28 110.308 211.948 101.64 222.64 101.64C233.332 101.64 242 110.308 242 121V222.64C242 233.332 233.332 242 222.64 242C211.948 242 203.28 233.332 203.28 222.64Z" fill="black"/>
</svg>
