<svg width="29" height="29" viewBox="0 0 29 29" fill="none" xmlns="http://www.w3.org/2000/svg">
<path d="M20.6404 25.8771V28.3333H8.35965V25.8771H20.6404ZM26.0439 20.4736V8.1929C26.0439 5.20863 23.6246 2.78939 20.6404 2.78939H8.35965C5.37537 2.78939 2.95614 5.20863 2.95614 8.1929V20.4736C2.95614 23.4579 5.37537 25.8771 8.35965 25.8771V28.3333C4.05281 28.3333 0.555048 24.8692 0.50064 20.5752L0.5 20.4736V8.1929C0.5 3.85214 4.01889 0.333252 8.35965 0.333252H20.6404L20.742 0.333892C25.0359 0.3883 28.5 3.88606 28.5 8.1929V20.4736L28.4994 20.5752C28.4454 24.8353 25.0021 28.2786 20.742 28.3326L20.6404 28.3333V25.8771C23.6246 25.8771 26.0439 23.4579 26.0439 20.4736Z" fill="white"/>
<path d="M19.3304 14.3333C19.3304 11.6655 17.1678 9.50284 14.5 9.50284C11.8322 9.50284 9.66959 11.6655 9.66959 14.3333C9.66959 17.001 11.8322 19.1637 14.5 19.1637V21.6198C10.4757 21.6198 7.21345 18.3575 7.21345 14.3333C7.21345 10.309 10.4757 7.0467 14.5 7.0467C18.5243 7.0467 21.7866 10.309 21.7866 14.3333C21.7866 18.3575 18.5243 21.6198 14.5 21.6198V19.1637C17.1678 19.1637 19.3304 17.001 19.3304 14.3333Z" fill="white"/>
<path d="M23.7515 6.80109C23.7515 7.75063 22.9817 8.52039 22.0322 8.52039C21.0826 8.52039 20.3129 7.75063 20.3129 6.80109C20.3129 5.85155 21.0826 5.08179 22.0322 5.08179C22.9817 5.08179 23.7515 5.85155 23.7515 6.80109Z" fill="white"/>
</svg>
