<svg width="30" height="29" viewBox="0 0 30 29" fill="none" xmlns="http://www.w3.org/2000/svg">
<path d="M7.22949 28.3336H1.30859V9.58453H7.22949V28.3336ZM22.3389 9.21442C24.9288 9.21442 26.3743 9.90957 27.1494 10.8179C28.9378 12.9147 29.0615 15.1969 29.0615 17.6021V28.3336H23.1406V17.6021C23.1436 17.56 23.3687 14.2723 20.4277 14.272C17.4677 14.272 16.7267 16.2452 16.7266 17.6021V28.3336H10.8066V9.58453H16.7266V11.8336C18.0163 9.94594 19.8679 9.21449 22.3389 9.21442ZM4.26855 0.333557C6.10787 0.333557 7.59961 1.82529 7.59961 3.66461C7.59938 5.50373 6.10773 6.99469 4.26855 6.99469C2.42952 6.99453 0.938708 5.50363 0.938477 3.66461C0.938477 1.82539 2.42938 0.333721 4.26855 0.333557Z" fill="white"/>
</svg>
