<svg width="25" height="29" viewBox="0 0 25 29" fill="none" xmlns="http://www.w3.org/2000/svg">
<path d="M18.0273 0.333252C18.0273 1.21413 18.2009 2.0868 18.538 2.90063C18.8752 3.71452 19.3692 4.45447 19.9921 5.07739C20.6151 5.70031 21.355 6.19437 22.1689 6.53149C22.9827 6.86857 23.8554 7.04224 24.7363 7.04224V11.8938C23.2183 11.8938 21.7149 11.5948 20.3124 11.0139C19.4847 10.6711 18.7029 10.2315 17.9794 9.71021V19.4758C17.9794 21.344 17.3889 23.1648 16.2919 24.677C15.195 26.1891 13.6478 27.3157 11.872 27.8958C10.0961 28.4758 8.18234 28.4796 6.40424 27.9065C4.62607 27.3333 3.07447 26.2124 1.97162 24.7043C0.868852 23.1964 0.270895 21.3782 0.263611 19.51C0.256366 17.6418 0.840562 15.8195 1.93158 14.303C3.02263 12.7864 4.56516 11.6537 6.33881 11.0667C7.00387 10.8466 7.68879 10.7068 8.37885 10.6487C8.7615 10.6165 9.14579 10.6095 9.52924 10.6272C9.77944 10.6387 10.0294 10.6608 10.2783 10.6936C10.3022 10.6968 10.3266 10.7 10.3505 10.7034V15.6125C9.53568 15.3534 8.65936 15.3585 7.8476 15.6272C7.03615 15.8958 6.33025 16.4139 5.83099 17.1077C5.33164 17.8018 5.06399 18.6364 5.06732 19.4915C5.07066 20.3464 5.34487 21.1783 5.84955 21.8684C6.35428 22.5586 7.06407 23.0719 7.87787 23.3342C8.6917 23.5966 9.568 23.5948 10.3808 23.3293C11.1935 23.0638 11.9013 22.5478 12.4033 21.8557C12.9052 21.1636 13.1757 20.3308 13.1757 19.4758V0.333252H18.0273Z" fill="white"/>
</svg>
