<svg width="39" height="29" viewBox="0 0 39 29" fill="none" xmlns="http://www.w3.org/2000/svg">
<path fill-rule="evenodd" clip-rule="evenodd" d="M25.2316 0.333557C31.1366 0.333557 34.089 0.333542 36.1138 1.93484C36.6037 2.32225 37.0442 2.77021 37.4252 3.26831C39 5.32713 39 8.32928 39 14.3336C39 20.3378 39 23.34 37.4252 25.3988C37.0442 25.8969 36.6037 26.3449 36.1138 26.7323C34.089 28.3336 31.1366 28.3336 25.2316 28.3336H13.7684C7.86344 28.3336 4.91095 28.3336 2.8862 26.7323C2.39633 26.3449 1.95579 25.8969 1.57479 25.3988C-1.44971e-05 23.34 0 20.3378 0 14.3336C0 8.32928 -1.44971e-05 5.32713 1.57479 3.26831C1.95579 2.77021 2.39633 2.32225 2.8862 1.93484C4.91095 0.333542 7.86344 0.333557 13.7684 0.333557H25.2316ZM15.6374 20.3517L25.8546 14.3336L15.6374 8.37881V20.3517Z" fill="white"/>
</svg>
